<?xml version="1.0" encoding="utf-8"?>
<svg width="8px" height="32px" viewBox="0 0 8 32" version="1.1" xmlns:xlink="http://www.w3.org/1999/xlink" xmlns="http://www.w3.org/2000/svg">
  <g id="t">
    <path d="M1.788 23.0943Q1.512 22.4583 1.392 21.6063Q1.272 20.7543 1.272 19.2183Q1.272 17.6823 1.848 15.0663L0.768 15.0663Q0.48 15.0663 0.48 14.8263Q0.48 14.2503 0.588 13.8783Q0.696 13.5063 1.104 13.0263L1.68 13.0263Q2.016 13.0263 2.4 13.0023Q3.552 9.30634 4.752 9.30634Q5.712 9.33034 6.096 10.5303Q6.192 10.8663 6.312 11.2503L5.328 12.9783Q7.008 13.0263 7.452 13.0263Q7.896 13.0263 7.932 13.1103Q7.968 13.1943 7.968 13.3623Q7.968 13.7943 7.764 14.4423Q7.56 15.0903 7.296 15.0663L4.896 14.9463Q4.392 17.8743 4.392 19.7943Q4.392 21.7143 4.944 21.7143Q5.4 21.7143 6.6 20.9583Q7.8 20.2023 8.328 19.5063Q8.856 18.8103 9.192 18.8103Q9.528 18.8103 9.528 19.6263Q9.528 20.4423 8.952 21.2943Q8.376 22.1463 7.5 22.8543Q6.624 23.5623 5.556 24.0183Q4.488 24.4743 3.696 24.4743Q2.904 24.4743 2.484 24.1023Q2.064 23.7303 1.788 23.0943Z" />
  </g>
</svg>